<?xml version="1.0" encoding="UTF-8"?>
<!DOCTYPE svg PUBLIC "-//W3C//DTD SVG 1.1//EN" "http://www.w3.org/Graphics/SVG/1.1/DTD/svg11.dtd">
<!-- Creator: CorelDRAW -->
<svg xmlns="http://www.w3.org/2000/svg" xml:space="preserve" width="62mm" height="47mm" version="1.1" style="shape-rendering:geometricPrecision; text-rendering:geometricPrecision; image-rendering:optimizeQuality; fill-rule:evenodd; clip-rule:evenodd"
viewBox="0 0 6200 4700"
 xmlns:xlink="http://www.w3.org/1999/xlink"
 xmlns:xodm="http://www.corel.com/coreldraw/odm/2003"
 zoomAndPan="magnify">
 <defs>
  <style type="text/css">
   <![CDATA[
    .fil1 {fill:none}
    .fil2 {fill:black;fill-rule:nonzero}
    .fil0 {fill:#8744B9;fill-rule:nonzero}
   ]]>
  </style>
   <clipPath id="id0">
    <path d="M1029.95 29.06l3104.44 0 0 2652.86 -3104.44 0 0 -2652.86zm0 0z"/>
   </clipPath>
 </defs>
 <g id="Camada_x0020_1">
  <metadata id="CorelCorpID_0Corel-Layer"/>
  <g>
  </g>
  <g style="clip-path:url(#id0)">
   <g id="_2715587214864">
    <path class="fil0" d="M2183.92 2244.95c0,-639 685.57,-1157 1531.41,-1157 135.74,0 267.34,13.5 392.74,38.58 -41.48,-611.02 -710.24,-1096.78 -1529.34,-1096.78 -845.7,0 -1531.42,518.01 -1531.42,1157 0,305.1 156.55,582.36 412.04,789.07l-350.03 468.67c0,0 -76.75,112.17 -0.41,184.24 88.75,83.65 196.79,8.27 196.79,8.27l669.03 -386.95c67.94,22.04 138.5,40.51 211.26,54.98 -1.38,-19.84 -2.07,-39.96 -2.07,-60.08zm0 0z"/>
   </g>
  </g>
  <path class="fil1" d="M1029.95 29.06l3104.44 0 0 2652.86 -3104.44 0 0 -2652.86zm0 0z"/>
  <path class="fil0" d="M4753.96 2988.26c240.19,-194.44 387.37,-455.16 387.37,-742.07 0,-600.83 -644.65,-1087.96 -1440.05,-1087.96 -795.27,0 -1439.92,487.13 -1439.92,1087.96 0,600.82 644.65,1087.96 1439.92,1087.96 201.74,0 393.84,-31.42 568.02,-88.06l629.08 363.94c0,0 101.7,70.83 184.93,-7.85 71.94,-67.8 -0.27,-173.36 -0.27,-173.36l-329.08 -440.56zm-1685.2 -589.52c-124.58,0 -225.73,-76.35 -225.73,-170.47 0,-94.25 101.15,-170.6 225.73,-170.6 124.71,0 225.86,76.35 225.86,170.6 0,94.12 -101.15,170.47 -225.86,170.47zm622.32 0c-124.71,0 -225.72,-76.35 -225.72,-170.47 0,-94.25 101.01,-170.6 225.72,-170.6 124.71,0 225.72,76.35 225.72,170.6 0,94.12 -101.01,170.47 -225.72,170.47zm642.72 0c-124.58,0 -225.73,-76.35 -225.73,-170.47 0,-94.25 101.15,-170.6 225.73,-170.6 124.71,0 225.72,76.35 225.72,170.6 0,94.12 -101.01,170.47 -225.72,170.47zm0 0z"/>
  <g id="_2715587266512">
   <g>
    <g>
     <path class="fil2" d="M420.26 4646.19c-118.38,0 -211.12,-28.11 -278.37,-84.33 -66.97,-56.23 -100.32,-133.54 -100.32,-232.07l254.66 0c0,35.01 10.61,62.29 31.97,82.13 21.22,19.57 50.44,29.22 87.65,29.22 32.24,0 57.6,-6.2 76.06,-18.74 18.33,-12.82 27.56,-30.46 27.56,-52.92 0,-50.71 -54.98,-86.82 -164.81,-108.59 -204.36,-39.27 -306.47,-135.32 -306.47,-288.28 0,-86.27 31,-154.48 93.15,-204.5 62.01,-49.89 147.18,-74.97 255.21,-74.97 74.97,0 140.01,12.68 195.13,38.03 55.13,25.08 97.71,60.91 127.89,107.49 30.04,46.72 45.2,101.29 45.2,163.71l-248.05 0c0,-34.86 -10.2,-61.32 -30.32,-79.37 -19.84,-18.33 -48.23,-27.56 -84.89,-27.56 -30.17,0 -54.43,6.47 -72.76,19.29 -18.46,12.54 -27.56,30.04 -27.56,52.36 0,23.57 12.13,43.27 36.38,58.98 24.53,15.44 65.87,29.77 124.03,43 111.34,24.25 192.51,59.81 243.63,106.38 50.99,46.72 76.62,107.9 76.62,183.56 0,89.3 -31.83,159.58 -95.36,210.56 -63.66,51.13 -152.41,76.62 -266.23,76.62zm0 0z"/>
    </g>
   </g>
  </g>
  <g id="_2715587260128">
   <g>
    <g>
     <path class="fil2" d="M839.12 4626.35l0 -690.68 250.25 0 0 690.68 -250.25 0zm-24.81 -926.6c0,-43.68 14.06,-78.82 42.45,-105.28 28.25,-26.46 64.07,-39.68 107.48,-39.68 43.27,0 79.1,13.22 107.49,39.68 28.25,26.46 42.44,61.6 42.44,105.28 0,42.72 -14.19,77.73 -42.44,105.29 -28.39,27.28 -64.22,40.79 -107.49,40.79 -43.41,0 -79.23,-13.51 -107.48,-40.79 -28.39,-27.56 -42.45,-62.57 -42.45,-105.29zm0 0z"/>
    </g>
   </g>
  </g>
  <g id="_2715587259216">
   <g>
    <g>
     <path class="fil2" d="M1186.26 4626.35l0 -690.68 179.7 0 24.8 67.8c51.4,-58.01 120.99,-87.09 208.91,-87.09 96.6,0 170.6,35.69 222.14,106.94 26.74,-33.76 60.77,-60.08 101.98,-78.83 41.48,-18.74 88.33,-28.11 140.56,-28.11 87.78,0 157.92,27.29 210.56,81.58 52.92,54.43 79.38,128.16 79.38,221.04l0 407.35 -250.81 0 0 -382.55c0,-37.48 -9.23,-66.83 -27.56,-88.19 -18.05,-21.22 -43.27,-31.97 -75.51,-31.97 -33.08,0 -59.26,11.02 -78.28,33.07 -19.15,21.78 -28.66,51.68 -28.66,89.85l0 379.79 -246.39 0 0 -382.55c0,-37.48 -9.24,-66.83 -27.56,-88.19 -18.47,-21.22 -43.82,-31.97 -76.07,-31.97 -32.8,0 -58.84,11.02 -78.27,33.07 -19.16,21.78 -28.67,51.68 -28.67,89.85l0 379.79 -250.25 0zm0 0z"/>
    </g>
   </g>
  </g>
  <g id="_2715587259024">
   <g>
    <g>
     <path class="fil2" d="M2884 4646.19c-47.81,0 -92.32,-7.99 -133.39,-23.7 -40.79,-15.71 -76.48,-37.62 -106.94,-65.6l-24.8 69.46 -179.7 0 0 -965.73 250.25 0 0 310.33c55.82,-36.38 120.72,-54.57 194.58,-54.57 69.73,0 131.19,15.44 184.11,46.3 52.92,30.87 94.4,73.73 124.57,128.44 30.05,54.84 45.2,117.82 45.2,189.06 0,72.49 -15.15,136.02 -45.2,190.73 -30.17,54.84 -71.65,97.84 -124.57,128.98 -52.92,30.87 -114.38,46.3 -184.11,46.3zm-203.39 -366.01c0,46.31 14.33,84.34 42.99,114.11 28.66,29.49 66.15,44.09 112.45,44.09 45.89,0 83.23,-14.6 111.89,-44.09 28.67,-29.77 43,-67.8 43,-114.11 0,-45.88 -14.33,-83.37 -43,-112.44 -28.66,-29.36 -66,-44.1 -111.89,-44.1 -46.3,0 -83.79,14.74 -112.45,44.1 -28.66,29.07 -42.99,66.56 -42.99,112.44zm0 0z"/>
    </g>
   </g>
  </g>
  <g id="_2715587257296">
   <g>
    <g>
     <path class="fil2" d="M3642.47 4646.19c-80.2,0 -150.48,-15.29 -211.11,-45.75 -60.36,-30.45 -107.35,-73.31 -141.11,-128.43 -33.49,-55.4 -50.16,-119.34 -50.16,-191.83 0,-71.93 16.67,-135.32 50.16,-190.16 33.76,-54.71 80.75,-97.29 141.11,-127.89 60.63,-30.45 130.91,-45.75 211.11,-45.75 80.07,0 150.07,15.3 210.02,45.75 59.8,30.6 106.52,73.18 140.01,127.89 33.76,54.84 50.71,118.23 50.71,190.16 0,72.49 -16.95,136.43 -50.71,191.83 -33.49,55.12 -80.21,97.98 -140.01,128.43 -59.95,30.46 -129.95,45.75 -210.02,45.75zm-156.54 -366.01c0,46.31 14.61,84.34 44.1,114.11 29.76,29.49 67.24,44.09 112.44,44.09 45.89,0 83.24,-14.6 111.9,-44.09 28.94,-29.77 43.55,-67.8 43.55,-114.11 0,-45.88 -14.61,-83.37 -43.55,-112.44 -28.66,-29.36 -66.01,-44.1 -111.9,-44.1 -45.2,0 -82.68,14.74 -112.44,44.1 -29.49,29.07 -44.1,66.56 -44.1,112.44zm0 0z"/>
    </g>
   </g>
  </g>
  <g id="_2715587256528">
   <g>
    <g>
     <path class="fil2" d="M4092.74 4626.35l0 -965.73 250.25 0 0 965.73 -250.25 0zm0 0z"/>
    </g>
   </g>
  </g>
  <g id="_2715587254416">
   <g>
    <g>
     <path class="fil2" d="M4439.89 4626.35l0 -690.68 250.25 0 0 690.68 -250.25 0zm-24.81 -926.6c0,-43.68 14.06,-78.82 42.44,-105.28 28.25,-26.46 64.08,-39.68 107.49,-39.68 43.27,0 79.1,13.22 107.49,39.68 28.25,26.46 42.44,61.6 42.44,105.28 0,42.72 -14.19,77.73 -42.44,105.29 -28.39,27.28 -64.22,40.79 -107.49,40.79 -43.41,0 -79.24,-13.51 -107.49,-40.79 -28.38,-27.56 -42.44,-62.57 -42.44,-105.29zm0 0z"/>
    </g>
   </g>
  </g>
  <g id="_2715587254368">
   <g>
    <g>
     <path class="fil2" d="M4742.38 4626.35l0 -167.02 297.66 -326.32 -287.18 0 0 -197.34 606.88 0 0 164.82 -297.65 328.52 304.27 0 0 197.34 -623.98 0zm0 0z"/>
    </g>
   </g>
  </g>
  <g id="_2715587255760">
   <g>
    <g>
     <path class="fil2" d="M5761.55 4646.19c-76.48,0 -144.14,-15.43 -202.84,-46.3 -58.85,-31.14 -104.74,-74.14 -137.81,-128.98 -33.07,-54.71 -49.61,-118.24 -49.61,-190.73 0,-71.93 16.54,-135.18 49.61,-189.61 33.07,-54.3 79.1,-97.02 138.36,-127.89 59.11,-30.86 127.05,-46.3 203.95,-46.3 82.68,0 153.79,17.64 213.32,52.92 59.53,35.28 104.73,84.89 135.6,148.83 30.86,63.94 44.09,138.9 39.68,224.89l-532.47 0c9.51,37.49 27.7,65.87 54.57,84.89 27.15,19.15 58.15,28.66 93.15,28.66 26.74,0 51.41,-4.68 73.87,-14.33 22.74,-9.51 41.06,-22.6 55.12,-39.13l243.09 0c-30.6,76.48 -78.69,136.15 -144.42,179.14 -65.87,42.72 -143.59,63.94 -233.17,63.94zm-140.56 -438.77l292.15 0c-10.34,-32.24 -27.98,-57.46 -52.92,-75.51 -24.67,-18.33 -56.09,-27.56 -94.26,-27.56 -35,0 -65.32,9.09 -90.95,27.01 -25.77,17.64 -43.82,42.99 -54.02,76.06zm0 0z"/>
    </g>
   </g>
  </g>
  <g id="_2715587253360">
   <g>
    <g>
    </g>
   </g>
  </g>
 </g>
</svg>
