<?xml version="1.0" encoding="UTF-8"?>
<!DOCTYPE svg PUBLIC "-//W3C//DTD SVG 1.1//EN" "http://www.w3.org/Graphics/SVG/1.1/DTD/svg11.dtd">
<!-- Creator: CorelDRAW -->
<svg xmlns="http://www.w3.org/2000/svg" xml:space="preserve" width="62mm" height="57mm" version="1.1" style="shape-rendering:geometricPrecision; text-rendering:geometricPrecision; image-rendering:optimizeQuality; fill-rule:evenodd; clip-rule:evenodd"
viewBox="0 0 6200 5700"
 xmlns:xlink="http://www.w3.org/1999/xlink"
 xmlns:xodm="http://www.corel.com/coreldraw/odm/2003"
 zoomAndPan="magnify">
 <defs>
  <style type="text/css">
   <![CDATA[
    .fil1 {fill:none}
    .fil2 {fill:black;fill-rule:nonzero}
    .fil0 {fill:#8744B9;fill-rule:nonzero}
   ]]>
  </style>
   <clipPath id="id0">
    <path d="M1032.53 40.02l3104.44 0 0 2652.86 -3104.44 0 0 -2652.86zm0 0z"/>
   </clipPath>
 </defs>
 <g id="Camada_x0020_1">
  <metadata id="CorelCorpID_0Corel-Layer"/>
  <g>
  </g>
  <g style="clip-path:url(#id0)">
   <g id="_2715994680240">
    <path class="fil0" d="M2186.5 2255.91c0,-639 685.57,-1157 1531.41,-1157 135.74,0 267.34,13.5 392.74,38.58 -41.48,-611.02 -710.24,-1096.78 -1529.34,-1096.78 -845.7,0 -1531.42,518.01 -1531.42,1157 0,305.1 156.55,582.36 412.04,789.07l-350.03 468.67c0,0 -76.75,112.17 -0.41,184.24 88.75,83.65 196.79,8.27 196.79,8.27l669.03 -386.95c67.94,22.04 138.5,40.51 211.26,54.98 -1.38,-19.84 -2.07,-39.96 -2.07,-60.08zm0 0z"/>
   </g>
  </g>
  <path class="fil1" d="M1032.53 40.02l3104.44 0 0 2652.86 -3104.44 0 0 -2652.86zm0 0z"/>
  <path class="fil0" d="M4756.54 2999.22c240.19,-194.44 387.37,-455.16 387.37,-742.07 0,-600.83 -644.65,-1087.96 -1440.05,-1087.96 -795.27,0 -1439.92,487.13 -1439.92,1087.96 0,600.82 644.65,1087.96 1439.92,1087.96 201.74,0 393.84,-31.42 568.02,-88.06l629.08 363.94c0,0 101.7,70.83 184.93,-7.85 71.94,-67.8 -0.27,-173.36 -0.27,-173.36l-329.08 -440.56zm-1685.2 -589.52c-124.58,0 -225.73,-76.35 -225.73,-170.47 0,-94.25 101.15,-170.6 225.73,-170.6 124.71,0 225.86,76.35 225.86,170.6 0,94.12 -101.15,170.47 -225.86,170.47zm622.32 0c-124.71,0 -225.72,-76.35 -225.72,-170.47 0,-94.25 101.01,-170.6 225.72,-170.6 124.71,0 225.72,76.35 225.72,170.6 0,94.12 -101.01,170.47 -225.72,170.47zm642.72 0c-124.58,0 -225.73,-76.35 -225.73,-170.47 0,-94.25 101.15,-170.6 225.73,-170.6 124.71,0 225.72,76.35 225.72,170.6 0,94.12 -101.01,170.47 -225.72,170.47zm0 0z"/>
  <g id="_2715994679136">
   <g>
    <g>
     <path class="fil2" d="M422.84 4657.15c-118.38,0 -211.12,-28.11 -278.37,-84.33 -66.97,-56.23 -100.32,-133.54 -100.32,-232.07l254.66 0c0,35.01 10.61,62.29 31.97,82.13 21.22,19.57 50.44,29.22 87.65,29.22 32.24,0 57.6,-6.2 76.06,-18.74 18.33,-12.82 27.56,-30.46 27.56,-52.92 0,-50.71 -54.98,-86.82 -164.81,-108.59 -204.36,-39.27 -306.47,-135.32 -306.47,-288.28 0,-86.27 31,-154.48 93.15,-204.5 62.01,-49.89 147.18,-74.97 255.21,-74.97 74.97,0 140.01,12.68 195.13,38.03 55.13,25.08 97.71,60.91 127.89,107.49 30.04,46.72 45.2,101.29 45.2,163.71l-248.05 0c0,-34.86 -10.2,-61.32 -30.32,-79.37 -19.84,-18.33 -48.23,-27.56 -84.89,-27.56 -30.17,0 -54.43,6.47 -72.76,19.29 -18.46,12.54 -27.56,30.04 -27.56,52.36 0,23.57 12.13,43.27 36.38,58.98 24.53,15.44 65.87,29.77 124.03,43 111.34,24.25 192.51,59.81 243.63,106.38 50.99,46.72 76.62,107.9 76.62,183.56 0,89.3 -31.83,159.58 -95.36,210.56 -63.66,51.13 -152.41,76.62 -266.23,76.62zm0 0z"/>
    </g>
   </g>
  </g>
  <g id="_2715994678656">
   <g>
    <g>
     <path class="fil2" d="M841.7 4637.31l0 -690.68 250.25 0 0 690.68 -250.25 0zm-24.81 -926.6c0,-43.68 14.06,-78.82 42.45,-105.28 28.25,-26.46 64.07,-39.68 107.48,-39.68 43.27,0 79.1,13.22 107.49,39.68 28.25,26.46 42.44,61.6 42.44,105.28 0,42.72 -14.19,77.73 -42.44,105.29 -28.39,27.28 -64.22,40.79 -107.49,40.79 -43.41,0 -79.23,-13.51 -107.48,-40.79 -28.39,-27.56 -42.45,-62.57 -42.45,-105.29zm0 0z"/>
    </g>
   </g>
  </g>
  <g id="_2715994679328">
   <g>
    <g>
     <path class="fil2" d="M1188.84 4637.31l0 -690.68 179.7 0 24.8 67.8c51.4,-58.01 120.99,-87.09 208.91,-87.09 96.6,0 170.6,35.69 222.14,106.94 26.74,-33.76 60.77,-60.08 101.98,-78.83 41.48,-18.74 88.33,-28.11 140.56,-28.11 87.78,0 157.92,27.29 210.56,81.58 52.92,54.43 79.38,128.16 79.38,221.04l0 407.35 -250.81 0 0 -382.55c0,-37.48 -9.23,-66.83 -27.56,-88.19 -18.05,-21.22 -43.27,-31.97 -75.51,-31.97 -33.08,0 -59.26,11.02 -78.28,33.07 -19.15,21.78 -28.66,51.68 -28.66,89.85l0 379.79 -246.39 0 0 -382.55c0,-37.48 -9.24,-66.83 -27.56,-88.19 -18.47,-21.22 -43.82,-31.97 -76.07,-31.97 -32.8,0 -58.84,11.02 -78.27,33.07 -19.16,21.78 -28.67,51.68 -28.67,89.85l0 379.79 -250.25 0zm0 0z"/>
    </g>
   </g>
  </g>
  <g id="_2715994676928">
   <g>
    <g>
     <path class="fil2" d="M2886.58 4657.15c-47.81,0 -92.32,-7.99 -133.39,-23.7 -40.79,-15.71 -76.48,-37.62 -106.94,-65.6l-24.8 69.46 -179.7 0 0 -965.73 250.25 0 0 310.33c55.82,-36.38 120.72,-54.57 194.58,-54.57 69.73,0 131.19,15.44 184.11,46.3 52.92,30.87 94.4,73.73 124.57,128.44 30.05,54.84 45.2,117.82 45.2,189.06 0,72.49 -15.15,136.02 -45.2,190.73 -30.17,54.84 -71.65,97.84 -124.57,128.98 -52.92,30.87 -114.38,46.3 -184.11,46.3zm-203.39 -366.01c0,46.31 14.33,84.34 42.99,114.11 28.66,29.49 66.15,44.09 112.45,44.09 45.89,0 83.23,-14.6 111.89,-44.09 28.67,-29.77 43,-67.8 43,-114.11 0,-45.88 -14.33,-83.37 -43,-112.44 -28.66,-29.36 -66,-44.1 -111.89,-44.1 -46.3,0 -83.79,14.74 -112.45,44.1 -28.66,29.07 -42.99,66.56 -42.99,112.44zm0 0z"/>
    </g>
   </g>
  </g>
  <g id="_2715994676640">
   <g>
    <g>
     <path class="fil2" d="M3645.05 4657.15c-80.2,0 -150.48,-15.29 -211.11,-45.75 -60.36,-30.45 -107.35,-73.31 -141.11,-128.43 -33.49,-55.4 -50.16,-119.34 -50.16,-191.83 0,-71.93 16.67,-135.32 50.16,-190.16 33.76,-54.71 80.75,-97.29 141.11,-127.89 60.63,-30.45 130.91,-45.75 211.11,-45.75 80.07,0 150.07,15.3 210.02,45.75 59.8,30.6 106.52,73.18 140.01,127.89 33.76,54.84 50.71,118.23 50.71,190.16 0,72.49 -16.95,136.43 -50.71,191.83 -33.49,55.12 -80.21,97.98 -140.01,128.43 -59.95,30.46 -129.95,45.75 -210.02,45.75zm-156.54 -366.01c0,46.31 14.61,84.34 44.1,114.11 29.76,29.49 67.24,44.09 112.44,44.09 45.89,0 83.24,-14.6 111.9,-44.09 28.94,-29.77 43.55,-67.8 43.55,-114.11 0,-45.88 -14.61,-83.37 -43.55,-112.44 -28.66,-29.36 -66.01,-44.1 -111.9,-44.1 -45.2,0 -82.68,14.74 -112.44,44.1 -29.49,29.07 -44.1,66.56 -44.1,112.44zm0 0z"/>
    </g>
   </g>
  </g>
  <g id="_2715994676400">
   <g>
    <g>
     <path class="fil2" d="M4095.32 4637.31l0 -965.73 250.25 0 0 965.73 -250.25 0zm0 0z"/>
    </g>
   </g>
  </g>
  <g id="_2715994676256">
   <g>
    <g>
     <path class="fil2" d="M4442.47 4637.31l0 -690.68 250.25 0 0 690.68 -250.25 0zm-24.81 -926.6c0,-43.68 14.06,-78.82 42.44,-105.28 28.25,-26.46 64.08,-39.68 107.49,-39.68 43.27,0 79.1,13.22 107.49,39.68 28.25,26.46 42.44,61.6 42.44,105.28 0,42.72 -14.19,77.73 -42.44,105.29 -28.39,27.28 -64.22,40.79 -107.49,40.79 -43.41,0 -79.24,-13.51 -107.49,-40.79 -28.38,-27.56 -42.44,-62.57 -42.44,-105.29zm0 0z"/>
    </g>
   </g>
  </g>
  <g id="_2715994678176">
   <g>
    <g>
     <path class="fil2" d="M4744.96 4637.31l0 -167.02 297.66 -326.32 -287.18 0 0 -197.34 606.88 0 0 164.82 -297.65 328.52 304.27 0 0 197.34 -623.98 0zm0 0z"/>
    </g>
   </g>
  </g>
  <g id="_2715994676208">
   <g>
    <g>
     <path class="fil2" d="M5764.13 4657.15c-76.48,0 -144.14,-15.43 -202.84,-46.3 -58.85,-31.14 -104.74,-74.14 -137.81,-128.98 -33.07,-54.71 -49.61,-118.24 -49.61,-190.73 0,-71.93 16.54,-135.18 49.61,-189.61 33.07,-54.3 79.1,-97.02 138.36,-127.89 59.11,-30.86 127.05,-46.3 203.95,-46.3 82.68,0 153.79,17.64 213.32,52.92 59.53,35.28 104.73,84.89 135.6,148.83 30.86,63.94 44.09,138.9 39.68,224.89l-532.47 0c9.51,37.49 27.7,65.87 54.57,84.89 27.15,19.15 58.15,28.66 93.15,28.66 26.74,0 51.41,-4.68 73.87,-14.33 22.74,-9.51 41.06,-22.6 55.12,-39.13l243.09 0c-30.6,76.48 -78.69,136.15 -144.42,179.14 -65.87,42.72 -143.59,63.94 -233.17,63.94zm-140.56 -438.77l292.15 0c-10.34,-32.24 -27.98,-57.46 -52.92,-75.51 -24.67,-18.33 -56.09,-27.56 -94.26,-27.56 -35,0 -65.32,9.09 -90.95,27.01 -25.77,17.64 -43.82,42.99 -54.02,76.06zm0 0z"/>
    </g>
   </g>
  </g>
  <g id="_2715994675776">
   <g>
    <g>
     <path class="fil2" d="M521.57 5106.97c-29.49,0 -56.09,-6.33 -79.93,-19.29 -23.98,-12.81 -42.72,-30.45 -56.22,-52.91 -13.65,-22.74 -20.4,-48.51 -20.4,-77.17 0,-28.67 6.75,-54.3 20.4,-77.17 13.5,-22.74 32.24,-40.38 56.22,-52.92 23.84,-12.82 50.71,-19.29 80.48,-19.29 24.94,0 47.54,4.41 67.8,13.23 20.12,8.81 37.2,21.49 51.26,38.03l-43 39.14c-19.84,-22.33 -44.09,-33.63 -72.76,-33.63 -18.05,0 -34.03,4.14 -47.95,12.13 -14.06,7.71 -25.08,18.6 -33.07,32.52 -7.72,14.06 -11.58,30.04 -11.58,47.96 0,18.05 3.86,34.03 11.58,47.95 7.99,14.06 19.01,25.08 33.07,33.07 13.92,7.72 29.9,11.58 47.95,11.58 28.67,0 52.92,-11.58 72.76,-34.73l43 39.69c-14.06,16.95 -31.28,29.77 -51.81,38.59 -20.26,8.81 -42.86,13.22 -67.8,13.22zm0 0z"/>
    </g>
   </g>
  </g>
  <g id="_2715994674144">
   <g>
    <g>
     <path class="fil2" d="M893.85 5106.97c-30.18,0 -57.33,-6.33 -81.58,-19.29 -23.98,-12.81 -42.72,-30.59 -56.22,-53.47 -13.65,-22.73 -20.4,-48.23 -20.4,-76.61 0,-28.25 6.75,-53.75 20.4,-76.62 13.5,-22.74 32.24,-40.52 56.22,-53.47 24.25,-12.82 51.4,-19.29 81.58,-19.29 30.04,0 57.05,6.47 81.03,19.29 23.84,12.95 42.58,30.73 56.22,53.47 13.92,22.87 20.95,48.37 20.95,76.62 0,28.38 -7.03,53.88 -20.95,76.61 -13.64,22.88 -32.38,40.66 -56.22,53.47 -23.98,12.96 -50.99,19.29 -81.03,19.29zm0 -56.77c17.23,0 32.66,-3.86 46.3,-11.58 13.51,-7.99 24.26,-19.01 31.97,-33.07 8,-13.92 12.13,-29.9 12.13,-47.95 0,-17.92 -4.13,-33.9 -12.13,-47.96 -7.71,-13.92 -18.46,-24.81 -31.97,-32.52 -13.64,-7.99 -29.07,-12.13 -46.3,-12.13 -16.95,0 -32.38,4.14 -46.3,12.13 -13.64,7.71 -24.53,18.6 -32.52,32.52 -7.72,14.06 -11.58,30.04 -11.58,47.96 0,18.05 3.86,34.03 11.58,47.95 7.99,14.06 18.88,25.08 32.52,33.07 13.92,7.72 29.35,11.58 46.3,11.58zm0 0z"/>
    </g>
   </g>
  </g>
  <g id="_2715994673904">
   <g>
    <g>
     <path class="fil2" d="M1433.22 5102.01l0 -173.63 -85.44 143.32 -29.77 0 -84.88 -139.46 0 169.77 -62.84 0 0 -288.83 55.67 0 108.04 179.69 106.38 -179.69 55.12 0 0.56 288.83 -62.84 0zm0 0z"/>
    </g>
   </g>
  </g>
  <g id="_2715994672944">
   <g>
    <g>
     <path class="fil2" d="M1760.98 5106.97c-41.2,0 -73.31,-11.3 -96.46,-34.17 -22.88,-22.74 -34.18,-55.4 -34.18,-98.12l0 -161.5 66.7 0 0 159.3c0,51.81 21.5,77.72 64.49,77.72 20.95,0 36.93,-6.2 47.96,-18.74 11.02,-12.82 16.53,-32.52 16.53,-58.98l0 -159.3 66.15 0 0 161.5c0,42.72 -11.58,75.38 -34.73,98.12 -23.15,22.87 -55.4,34.17 -96.46,34.17zm0 0z"/>
    </g>
   </g>
  </g>
  <g id="_2715994673856">
   <g>
    <g>
     <path class="fil2" d="M2291.01 4813.18l0 288.83 -55.12 0 -143.87 -175.28 0 175.28 -66.14 0 0 -288.83 55.67 0 143.32 175.28 0 -175.28 66.14 0zm0 0z"/>
    </g>
   </g>
  </g>
  <g id="_2715994675344">
   <g>
    <g>
     <path class="fil2" d="M2427.46 4813.18l67.25 0 0 288.83 -67.25 0 0 -288.83zm0 0z"/>
    </g>
   </g>
  </g>
  <g id="_2715994675008">
   <g>
    <g>
     <path class="fil2" d="M2769.3 5106.97c-29.49,0 -56.09,-6.33 -79.93,-19.29 -23.98,-12.81 -42.72,-30.45 -56.22,-52.91 -13.65,-22.74 -20.4,-48.51 -20.4,-77.17 0,-28.67 6.75,-54.3 20.4,-77.17 13.5,-22.74 32.24,-40.38 56.22,-52.92 23.84,-12.82 50.71,-19.29 80.48,-19.29 24.94,0 47.54,4.41 67.8,13.23 20.12,8.81 37.2,21.49 51.26,38.03l-42.99 39.14c-19.85,-22.33 -44.1,-33.63 -72.77,-33.63 -18.05,0 -34.03,4.14 -47.95,12.13 -14.06,7.71 -25.08,18.6 -33.07,32.52 -7.72,14.06 -11.58,30.04 -11.58,47.96 0,18.05 3.86,34.03 11.58,47.95 7.99,14.06 19.01,25.08 33.07,33.07 13.92,7.72 29.9,11.58 47.95,11.58 28.67,0 52.92,-11.58 72.77,-34.73l42.99 39.69c-14.06,16.95 -31.28,29.77 -51.81,38.59 -20.26,8.81 -42.86,13.22 -67.8,13.22zm0 0z"/>
    </g>
   </g>
  </g>
  <g id="_2715994672464">
   <g>
    <g>
     <path class="fil2" d="M3191.74 5040.28l-133.94 0 -25.36 61.73 -68.9 0 128.98 -288.83 66.15 0 128.98 288.83 -70 0 -25.91 -61.73zm-20.94 -50.71l-45.75 -110.8 -45.76 110.8 91.51 0zm0 0z"/>
    </g>
   </g>
  </g>
  <g id="_2715994670640">
   <g>
    <g>
     <path class="fil2" d="M3524.18 5106.97c-29.49,0 -56.09,-6.33 -79.93,-19.29 -23.97,-12.81 -42.72,-30.45 -56.22,-52.91 -13.64,-22.74 -20.4,-48.51 -20.4,-77.17 0,-28.67 6.76,-54.3 20.4,-77.17 13.5,-22.74 32.25,-40.38 56.22,-52.92 23.84,-12.82 50.72,-19.29 80.48,-19.29 24.94,0 47.54,4.41 67.8,13.23 20.12,8.81 37.21,21.49 51.26,38.03l-42.99 39.14c-19.84,-22.33 -44.1,-33.63 -72.76,-33.63 -18.05,0 -34.04,4.14 -47.96,12.13 -14.05,7.71 -25.08,18.6 -33.07,32.52 -7.72,14.06 -11.58,30.04 -11.58,47.96 0,18.05 3.86,34.03 11.58,47.95 7.99,14.06 19.02,25.08 33.07,33.07 13.92,7.72 29.91,11.58 47.96,11.58 28.66,0 52.92,-11.58 72.76,-34.73l42.99 39.69c-14.05,16.95 -31.28,29.77 -51.81,38.59 -20.26,8.81 -42.86,13.22 -67.8,13.22zm-22.05 90.96c-7.44,0 -14.61,-0.83 -21.5,-2.21 -6.61,-1.52 -12.4,-3.72 -17.08,-6.61l9.92 -27.56c8.82,3.99 17.77,6.06 27.01,6.06 14.33,0 21.5,-4.41 21.5,-13.23 0,-8.13 -6.9,-12.13 -20.4,-12.13l-14.33 0 11.02 -43.54 34.18 0 -5.51 23.7c11.71,1.38 20.53,5.24 26.45,11.57 6.21,6.21 9.38,13.92 9.38,23.16 0,12.4 -5.52,22.32 -16.54,29.76 -11.03,7.3 -25.77,11.03 -44.1,11.03zm0 0z"/>
    </g>
   </g>
  </g>
  <g id="_2715994670496">
   <g>
    <g>
     <path class="fil2" d="M3946.63 5040.28l-133.95 0 -25.36 61.73 -68.9 0 128.99 -288.83 66.14 0 128.99 288.83 -70.01 0 -25.9 -61.73zm-20.95 -50.71l-45.75 -110.8 -45.75 110.8 91.5 0zm-14.33 -198.99c-7.44,0 -13.78,-1.24 -19.29,-3.86 -5.52,-2.9 -11.86,-6.89 -18.75,-12.13 -4.41,-3.31 -8.13,-5.65 -11.02,-7.16 -3.03,-1.8 -5.79,-2.76 -8.27,-2.76 -5.92,0 -10.75,2.07 -14.33,6.06 -3.72,4.14 -5.51,9.79 -5.51,17.09l-33.07 0c0.68,-18.33 5.23,-32.8 13.78,-43.54 8.82,-11.03 20.39,-16.54 34.72,-16.54 7.31,0 13.78,1.51 19.29,4.41 5.52,2.62 11.86,6.61 19.3,12.13 4.41,3.3 7.85,5.92 10.47,7.71 2.89,1.52 5.79,2.21 8.82,2.21 5.51,0 10.06,-1.93 13.78,-6.07 3.58,-3.99 5.65,-9.5 6.06,-16.53l32.53 0c-0.42,18.05 -4.97,32.38 -13.79,42.99 -8.81,10.75 -20.39,15.99 -34.72,15.99zm0 0z"/>
    </g>
   </g>
  </g>
  <g id="_2715994670064">
   <g>
    <g>
     <path class="fil2" d="M4280.72 5106.97c-30.18,0 -57.33,-6.33 -81.58,-19.29 -23.98,-12.81 -42.72,-30.59 -56.23,-53.47 -13.64,-22.73 -20.39,-48.23 -20.39,-76.61 0,-28.25 6.75,-53.75 20.39,-76.62 13.51,-22.74 32.25,-40.52 56.23,-53.47 24.25,-12.82 51.4,-19.29 81.58,-19.29 30.04,0 57.05,6.47 81.03,19.29 23.84,12.95 42.58,30.73 56.22,53.47 13.92,22.87 20.95,48.37 20.95,76.62 0,28.38 -7.03,53.88 -20.95,76.61 -13.64,22.88 -32.38,40.66 -56.22,53.47 -23.98,12.96 -50.99,19.29 -81.03,19.29zm0 -56.77c17.22,0 32.66,-3.86 46.3,-11.58 13.5,-7.99 24.25,-19.01 31.97,-33.07 7.99,-13.92 12.13,-29.9 12.13,-47.95 0,-17.92 -4.14,-33.9 -12.13,-47.96 -7.72,-13.92 -18.47,-24.81 -31.97,-32.52 -13.64,-7.99 -29.08,-12.13 -46.3,-12.13 -16.95,0 -32.39,4.14 -46.3,12.13 -13.65,7.71 -24.53,18.6 -32.53,32.52 -7.71,14.06 -11.57,30.04 -11.57,47.96 0,18.05 3.86,34.03 11.57,47.95 8,14.06 18.88,25.08 32.53,33.07 13.91,7.72 29.35,11.58 46.3,11.58zm0 0z"/>
    </g>
   </g>
  </g>
  <g id="_2715994671168">
   <g>
    <g>
    </g>
   </g>
  </g>
  <g id="_2715994670016">
   <g>
    <g>
     <path class="fil2" d="M5007.19 4813.18l0 288.83 -55.12 0 -143.87 -175.28 0 175.28 -66.14 0 0 -288.83 55.67 0 143.32 175.28 0 -175.28 66.14 0zm0 0z"/>
    </g>
   </g>
  </g>
  <g id="_2715994671408">
   <g>
    <g>
     <path class="fil2" d="M5333.81 5040.28l-133.94 0 -25.36 61.73 -68.9 0 128.98 -288.83 66.15 0 128.98 288.83 -70 0 -25.91 -61.73zm-20.94 -50.71l-45.75 -110.8 -45.75 110.8 91.5 0zm-14.33 -198.99c-7.45,0 -13.79,-1.24 -19.3,-3.86 -5.51,-2.9 -11.85,-6.89 -18.74,-12.13 -4.41,-3.31 -8.13,-5.65 -11.02,-7.16 -3.03,-1.8 -5.79,-2.76 -8.27,-2.76 -5.93,0 -10.75,2.07 -14.33,6.06 -3.72,4.14 -5.51,9.79 -5.51,17.09l-33.08 0c0.69,-18.33 5.24,-32.8 13.78,-43.54 8.82,-11.03 20.4,-16.54 34.73,-16.54 7.3,0 13.78,1.51 19.29,4.41 5.51,2.62 11.85,6.61 19.29,12.13 4.41,3.3 7.86,5.92 10.48,7.71 2.89,1.52 5.79,2.21 8.82,2.21 5.51,0 10.06,-1.93 13.78,-6.07 3.58,-3.99 5.65,-9.5 6.06,-16.53l32.52 0c-0.41,18.05 -4.96,32.38 -13.78,42.99 -8.82,10.75 -20.39,15.99 -34.72,15.99zm0 0z"/>
    </g>
   </g>
  </g>
  <g id="_2715994669776">
   <g>
    <g>
     <path class="fil2" d="M5667.9 5106.97c-30.17,0 -57.32,-6.33 -81.58,-19.29 -23.97,-12.81 -42.71,-30.59 -56.22,-53.47 -13.64,-22.73 -20.39,-48.23 -20.39,-76.61 0,-28.25 6.75,-53.75 20.39,-76.62 13.51,-22.74 32.25,-40.52 56.22,-53.47 24.26,-12.82 51.41,-19.29 81.58,-19.29 30.05,0 57.05,6.47 81.03,19.29 23.84,12.95 42.58,30.73 56.23,53.47 13.91,22.87 20.94,48.37 20.94,76.62 0,28.38 -7.03,53.88 -20.94,76.61 -13.65,22.88 -32.39,40.66 -56.23,53.47 -23.98,12.96 -50.98,19.29 -81.03,19.29zm0 -56.77c17.23,0 32.66,-3.86 46.31,-11.58 13.5,-7.99 24.25,-19.01 31.97,-33.07 7.99,-13.92 12.12,-29.9 12.12,-47.95 0,-17.92 -4.13,-33.9 -12.12,-47.96 -7.72,-13.92 -18.47,-24.81 -31.97,-32.52 -13.65,-7.99 -29.08,-12.13 -46.31,-12.13 -16.95,0 -32.38,4.14 -46.3,12.13 -13.64,7.71 -24.53,18.6 -32.52,32.52 -7.72,14.06 -11.58,30.04 -11.58,47.96 0,18.05 3.86,34.03 11.58,47.95 7.99,14.06 18.88,25.08 32.52,33.07 13.92,7.72 29.35,11.58 46.3,11.58zm0 0z"/>
    </g>
   </g>
  </g>
  <g id="_2715994668720">
   <g>
    <g>
     <path class="fil2" d="M2352.78 5363.48l-125.13 288.84 -66.14 0 -124.58 -288.84 72.21 0 88.2 206.16 89.29 -206.16 66.15 0zm0 0z"/>
    </g>
   </g>
  </g>
  <g id="_2715994667712">
   <g>
    <g>
     <path class="fil2" d="M2674.76 5598.85l0 53.47 -223.8 0 0 -288.84 218.28 0 0 53.47 -151.58 0 0 62.84 133.95 0 0 51.81 -133.95 0 0 67.25 157.1 0zm0 0z"/>
    </g>
   </g>
  </g>
  <g id="_2715994667616">
   <g>
    <g>
     <path class="fil2" d="M2980.11 5652.32l-55.67 -80.48 -61.19 0 0 80.48 -67.24 0 0 -288.84 125.12 0c25.63,0 47.96,4.27 66.7,12.68 18.74,8.54 33.21,20.67 43.54,36.38 10.2,15.85 15.44,34.45 15.44,55.67 0,21.36 -5.24,39.97 -15.44,55.67 -10.33,15.44 -25.08,27.29 -44.09,35.28l65.04 93.16 -72.21 0zm-1.1 -184.11c0,-16.12 -5.38,-28.39 -15.99,-36.93 -10.33,-8.82 -25.63,-13.23 -45.75,-13.23l-54.02 0 0 100.32 54.02 0c20.12,0 35.42,-4.41 45.75,-13.23 10.61,-8.82 15.99,-21.08 15.99,-36.93zm0 0z"/>
    </g>
   </g>
  </g>
  <g id="_2715994666656">
   <g>
    <g>
     <path class="fil2" d="M3379.68 5501.84c16.54,5.51 29.35,14.33 38.59,26.45 9.5,12.13 14.33,27.29 14.33,45.2 0,25.36 -9.92,44.93 -29.77,58.43 -19.57,13.65 -48.23,20.4 -85.99,20.4l-149.38 0 0 -288.84 141.11 0c35.28,0 62.29,6.89 81.03,20.4 19.02,13.23 28.67,31.42 28.67,54.57 0,14.05 -3.59,26.45 -10.48,37.48 -6.61,11.02 -15.98,19.7 -28.11,25.91zm-145.52 -88.2l0 68.35 66.15 0c16.53,0 28.93,-2.89 37.48,-8.82 8.82,-5.78 13.23,-14.47 13.23,-25.9 0,-11.03 -4.41,-19.3 -13.23,-24.81 -8.55,-5.79 -20.95,-8.82 -37.48,-8.82l-66.15 0zm77.72 188.52c17.64,0 30.87,-2.9 39.69,-8.82 9.09,-5.79 13.78,-14.89 13.78,-27.01 0,-23.84 -17.92,-35.83 -53.47,-35.83l-77.72 0 0 71.66 77.72 0zm0 0z"/>
    </g>
   </g>
  </g>
  <g id="_2715994666560">
   <g>
    <g>
     <path class="fil2" d="M3741.47 5590.58l-133.94 0 -25.36 61.74 -68.9 0 128.98 -288.84 66.15 0 128.98 288.84 -70 0 -25.91 -61.74zm-20.94 -50.71l-45.76 -110.79 -45.75 110.79 91.51 0zm0 0z"/>
    </g>
   </g>
  </g>
  <g id="_2715994667136">
   <g>
    <g>
     <path class="fil2" d="M3935.55 5363.48l67.25 0 0 234.27 144.42 0 0 54.57 -211.67 0 0 -288.84zm0 0z"/>
    </g>
   </g>
  </g>
 </g>
</svg>
