<?xml version="1.0" encoding="UTF-8"?>
<!DOCTYPE svg PUBLIC "-//W3C//DTD SVG 1.1//EN" "http://www.w3.org/Graphics/SVG/1.1/DTD/svg11.dtd">
<!-- Creator: CorelDRAW -->
<svg xmlns="http://www.w3.org/2000/svg" xml:space="preserve" width="62mm" height="13.5mm" version="1.1" style="shape-rendering:geometricPrecision; text-rendering:geometricPrecision; image-rendering:optimizeQuality; fill-rule:evenodd; clip-rule:evenodd"
viewBox="0 0 6200 1350"
 xmlns:xlink="http://www.w3.org/1999/xlink"
 xmlns:xodm="http://www.corel.com/coreldraw/odm/2003"
 zoomAndPan="magnify">
 <defs>
  <style type="text/css">
   <![CDATA[
    .fil1 {fill:none}
    .fil2 {fill:black;fill-rule:nonzero}
    .fil0 {fill:#8744B9;fill-rule:nonzero}
   ]]>
  </style>
    <clipPath id="id0">
     <path d="M319.11 48.1l1081.68 0 0 922.4 -1081.68 0 0 -922.4zm0 0z"/>
    </clipPath>
    <clipPath id="id1">
     <path d="M732.66 423.85l1029 0 0 884.59 -1029 0 0 -884.59zm0 0z"/>
    </clipPath>
 </defs>
 <g id="Camada_x0020_1">
  <metadata id="CorelCorpID_0Corel-Layer"/>
  <g id="_2715811804944">
   <g>
   </g>
   <g style="clip-path:url(#id0)">
    <g>
     <path class="fil0" d="M721.35 815.96c0,-221.45 237.66,-400.9 530.75,-400.9 47.07,0 92.7,4.67 136.11,13.37 -14.39,-211.71 -246.11,-380.09 -529.96,-380.09 -293.09,0 -530.75,179.53 -530.75,400.97 0,105.66 54.25,201.83 142.75,273.41l-121.24 162.44c0,0 -26.57,38.83 -0.16,63.83 30.77,29.02 68.17,2.92 68.17,2.92l231.89 -134.13c23.57,7.67 48,14 73.15,19.06 -0.39,-6.88 -0.71,-13.84 -0.71,-20.88zm0 0z"/>
    </g>
   </g>
   <path class="fil1" d="M319.11 48.1l1081.68 0 0 922.4 -1081.68 0 0 -922.4zm0 0z"/>
   <g>
   </g>
   <g style="clip-path:url(#id1)">
    <g>
     <path class="fil0" d="M1612.03 1073.63c83.2,-67.39 134.21,-157.78 134.21,-257.2 0,-208.23 -223.42,-377 -499.04,-377 -275.54,0 -498.95,168.77 -498.95,377 0,208.24 223.41,377.01 498.95,377.01 70,0 136.51,-10.91 196.85,-30.52l218.04 126.14c0,0 35.2,24.51 64.06,-2.69 24.92,-23.49 -0.08,-60.11 -0.08,-60.11l-114.04 -152.63zm-583.97 -204.29c-43.19,0 -78.22,-26.49 -78.22,-59.16 0,-32.58 35.03,-59.07 78.22,-59.07 43.18,0 78.21,26.49 78.21,59.07 0,32.67 -35.03,59.16 -78.21,59.16zm215.67 0c-43.27,0 -78.22,-26.49 -78.22,-59.16 0,-32.58 34.95,-59.07 78.22,-59.07 43.18,0 78.21,26.49 78.21,59.07 0,32.67 -35.03,59.16 -78.21,59.16zm222.7 0c-43.18,0 -78.22,-26.49 -78.22,-59.16 0,-32.58 35.04,-59.07 78.22,-59.07 43.18,0 78.22,26.49 78.22,59.07 0,32.67 -35.04,59.16 -78.22,59.16zm0 0z"/>
    </g>
   </g>
   <path class="fil1" d="M732.66 423.85l1029 0 0 884.59 -1029 0 0 -884.59zm0 0z"/>
   <g>
    <g>
     <g>
      <path class="fil2" d="M2085.43 1015.44c-78.05,0 -139.19,-18.42 -183.48,-55.36 -44.13,-37.09 -66.12,-88.1 -66.12,-153.11l167.98 0c0,23.01 6.96,41.05 20.88,54.1 14.08,12.89 33.54,19.29 58.21,19.29 21.28,0 37.96,-4.11 49.99,-12.34 12.02,-8.38 18.03,-20.08 18.03,-35.11 0,-33.3 -36.22,-57.1 -108.51,-71.5 -134.77,-25.7 -202.14,-89.04 -202.14,-190.12 0,-56.94 20.4,-101.86 61.36,-134.76 41.13,-33.06 97.2,-49.67 168.3,-49.67 49.35,0 92.22,8.38 128.75,24.99 36.46,16.69 64.62,40.42 84.47,71.18 19.77,30.61 29.74,66.59 29.74,107.87l-163.56 0c0,-22.77 -6.64,-40.17 -19.92,-52.19 -13.13,-12.18 -31.8,-18.35 -56,-18.35 -20.09,0 -36.06,4.27 -48.08,12.65 -12.02,8.23 -18.03,19.86 -18.03,34.8 0,15.42 7.99,28.31 24.04,38.6 15.98,10.36 43.18,19.85 81.61,28.47 73.56,16.05 127.18,39.46 160.71,70.23 33.53,30.6 50.3,70.86 50.3,120.84 0,59.08 -21.04,105.5 -62.95,139.2 -41.76,33.53 -100.28,50.29 -175.58,50.29zm0 0z"/>
     </g>
    </g>
   </g>
   <g>
    <g>
     <g>
      <path class="fil2" d="M2361.7 1002.47l0 -455.22 165.45 0 0 455.22 -165.45 0zm-16.13 -611.18c0,-28.63 9.25,-51.72 27.84,-69.28 18.5,-17.48 42.22,-26.26 71.17,-26.26 28.63,0 52.28,8.78 70.86,26.26 18.51,17.56 27.84,40.65 27.84,69.28 0,28.07 -9.33,51.17 -27.84,69.28 -18.58,18.19 -42.23,27.2 -70.86,27.2 -28.95,0 -52.67,-9.01 -71.17,-27.2 -18.59,-18.11 -27.84,-41.21 -27.84,-69.28zm0 0z"/>
     </g>
    </g>
   </g>
   <g>
    <g>
     <g>
      <path class="fil2" d="M2590.64 1002.47l0 -455.22 118.94 0 16.45 44.6c33.69,-38.35 79.57,-57.57 137.62,-57.57 63.66,0 112.38,23.57 146.15,70.54 17.87,-22.3 40.49,-39.62 67.7,-51.88 27.2,-12.41 58.05,-18.66 92.68,-18.66 57.74,0 104.08,17.95 138.88,53.78 34.8,35.9 52.2,84.46 52.2,145.83l0 268.58 -165.45 0 0 -252.13c0,-24.67 -6.01,-44.04 -18.03,-58.2 -12.02,-14.08 -28.71,-21.2 -49.99,-21.2 -21.74,0 -38.91,7.2 -51.56,21.51 -12.66,14.4 -18.98,34.17 -18.98,59.48l0 250.54 -162.6 0 0 -252.13c0,-24.67 -6.02,-44.04 -18.03,-58.2 -12.03,-14.08 -28.72,-21.2 -49.99,-21.2 -21.98,0 -39.23,7.2 -51.88,21.51 -12.5,14.4 -18.67,34.17 -18.67,59.48l0 250.54 -165.44 0zm0 0z"/>
     </g>
    </g>
   </g>
   <g>
    <g>
     <g>
      <path class="fil2" d="M3710.48 1015.44c-31.47,0 -60.66,-5.21 -87.62,-15.5 -27.05,-10.28 -50.54,-24.67 -70.55,-43.02l-16.45 45.55 -118.95 0 0 -637.12 165.45 0 0 204.99c36.7,-24.04 79.41,-36.06 128.12,-36.06 45.95,0 86.44,10.28 121.48,30.68 34.96,20.25 62.4,48.56 82.25,84.79 19.77,36.06 29.74,77.66 29.74,124.63 0,47.7 -9.97,89.69 -29.74,125.91 -19.85,36.07 -47.29,64.38 -82.25,84.78 -35.04,20.25 -75.53,30.37 -121.48,30.37zm-134.13 -241.06c0,30.38 9.33,55.37 28.16,74.98 18.98,19.46 43.65,29.1 74.02,29.1 30.53,0 55.21,-9.64 74.03,-29.1 18.98,-19.61 28.47,-44.6 28.47,-74.98 0,-30.36 -9.49,-55.12 -28.47,-74.33 -18.82,-19.38 -43.5,-29.11 -74.03,-29.11 -30.37,0 -55.04,9.73 -74.02,29.11 -18.83,19.21 -28.16,43.97 -28.16,74.33zm0 0z"/>
     </g>
    </g>
   </g>
   <g>
    <g>
     <g>
      <path class="fil2" d="M4210.46 1015.44c-52.75,0 -99.02,-10.04 -138.87,-30.05 -39.86,-20.24 -70.87,-48.48 -93.01,-84.78 -22.14,-36.46 -33.22,-78.53 -33.22,-126.23 0,-47.6 11.08,-89.52 33.22,-125.58 22.14,-36.22 53.15,-64.38 93.01,-84.47 39.85,-20.01 86.12,-30.05 138.87,-30.05 52.91,0 99.1,10.04 138.57,30.05 39.62,20.09 70.54,48.25 92.68,84.47 22.15,36.06 33.22,77.98 33.22,125.58 0,47.7 -11.07,89.77 -33.22,126.23 -22.14,36.3 -53.06,64.54 -92.68,84.78 -39.47,20.01 -85.66,30.05 -138.57,30.05zm-103.13 -241.06c0,30.38 9.65,55.37 29.11,74.98 19.61,19.46 44.29,29.1 74.02,29.1 30.53,0 55.2,-9.64 74.03,-29.1 18.98,-19.61 28.47,-44.6 28.47,-74.98 0,-30.36 -9.49,-55.12 -28.47,-74.33 -18.83,-19.38 -43.5,-29.11 -74.03,-29.11 -29.73,0 -54.41,9.73 -74.02,29.11 -19.46,19.21 -29.11,43.97 -29.11,74.33zm0 0z"/>
     </g>
    </g>
   </g>
   <g>
    <g>
     <g>
      <path class="fil2" d="M4507.41 1002.47l0 -637.12 165.46 0 0 637.12 -165.46 0zm0 0z"/>
     </g>
    </g>
   </g>
   <g>
    <g>
     <g>
      <path class="fil2" d="M4736.35 1002.47l0 -455.22 165.45 0 0 455.22 -165.45 0zm-16.13 -611.18c0,-28.63 9.25,-51.72 27.83,-69.28 18.51,-17.48 42.24,-26.26 71.19,-26.26 28.62,0 52.27,8.78 70.86,26.26 18.51,17.56 27.84,40.65 27.84,69.28 0,28.07 -9.33,51.17 -27.84,69.28 -18.59,18.19 -42.24,27.2 -70.86,27.2 -28.95,0 -52.68,-9.01 -71.19,-27.2 -18.58,-18.11 -27.83,-41.21 -27.83,-69.28zm0 0z"/>
     </g>
    </g>
   </g>
   <g>
    <g>
     <g>
      <path class="fil2" d="M4936.18 1002.47l0 -110.08 196.14 -215.44 -189.18 0 0 -129.7 400.19 0 0 108.19 -196.46 217.01 200.56 0 0 130.02 -411.25 0zm0 0z"/>
     </g>
    </g>
   </g>
   <g>
    <g>
     <g>
      <path class="fil2" d="M5608.37 1015.44c-50.62,0 -95.38,-10.12 -134.14,-30.37 -38.59,-20.4 -68.88,-48.71 -90.79,-84.78 -21.74,-36.22 -32.58,-78.21 -32.58,-125.91 0,-47.6 10.84,-89.36 32.58,-125.27 21.91,-35.82 52.36,-63.9 91.43,-84.15 38.99,-20.4 83.83,-30.68 134.45,-30.68 54.41,0 101.23,11.62 140.46,34.8 39.38,23.25 69.28,55.91 89.52,98.06 20.41,42.24 29.26,91.74 26.58,148.69l-351.47 0c6.33,24.67 18.35,43.34 36.06,55.99 17.88,12.5 38.36,18.67 61.38,18.67 17.71,0 34.01,-3.17 49.03,-9.5 14.95,-6.32 26.97,-14.86 36.07,-25.62l160.07 0c-20.09,50.46 -51.81,89.76 -95.22,118 -43.26,28.08 -94.43,42.07 -153.43,42.07zm-93.01 -289.14l192.97 0c-6.96,-21.27 -18.66,-37.96 -35.11,-49.98 -16.29,-12.02 -37.02,-18.03 -62.32,-18.03 -23.01,0 -42.95,5.93 -59.79,17.71 -16.92,11.63 -28.79,28.4 -35.75,50.3zm0 0z"/>
     </g>
    </g>
   </g>
   <g>
    <g>
     <g>
      <path class="fil2" d="M1959.01 1250.36c-14.79,0 -28.15,-3.16 -40.18,-9.49 -11.86,-6.48 -21.19,-15.5 -28.15,-26.89 -6.8,-11.38 -10.12,-24.35 -10.12,-38.91 0,-14.31 3.32,-27.21 10.12,-38.59 6.96,-11.39 16.29,-20.25 28.15,-26.58 12.03,-6.48 25.47,-9.8 40.5,-9.8 12.65,0 24.04,2.21 34.16,6.64 10.13,4.43 18.67,10.76 25.63,18.98l-21.52 19.93c-9.96,-11.39 -22.14,-17.08 -36.69,-17.08 -9.09,0 -17.08,2.05 -24.04,6.01 -6.97,4.03 -12.5,9.65 -16.45,16.77 -4.04,6.95 -6.01,14.87 -6.01,23.72 0,9.1 1.97,17.24 6.01,24.36 3.95,6.96 9.48,12.5 16.45,16.45 6.96,3.8 14.95,5.7 24.04,5.7 14.55,0 26.73,-5.7 36.69,-17.09l21.52 19.93c-6.96,8.46 -15.66,14.87 -25.94,19.3 -10.13,4.43 -21.51,6.64 -34.17,6.64zm0 0z"/>
     </g>
    </g>
   </g>
   <g>
    <g>
     <g>
      <path class="fil2" d="M2146.45 1250.36c-15.19,0 -28.79,-3.24 -40.81,-9.81 -12.03,-6.48 -21.51,-15.5 -28.48,-26.88 -6.8,-11.4 -10.12,-24.2 -10.12,-38.6 0,-14.08 3.32,-26.89 10.12,-38.28 6.97,-11.38 16.45,-20.32 28.48,-26.89 12.02,-6.48 25.62,-9.8 40.81,-9.8 14.94,0 28.47,3.32 40.49,9.8 12.02,6.57 21.51,15.51 28.47,26.89 6.96,11.39 10.44,24.2 10.44,38.28 0,14.4 -3.48,27.2 -10.44,38.6 -6.96,11.38 -16.45,20.4 -28.47,26.88 -12.02,6.57 -25.55,9.81 -40.49,9.81zm0 -28.78c8.62,0 16.28,-1.9 23.09,-5.7 6.96,-3.95 12.33,-9.49 16.13,-16.45 3.96,-7.12 6.01,-15.26 6.01,-24.36 0,-8.85 -2.05,-16.77 -6.01,-23.72 -3.8,-7.12 -9.17,-12.74 -16.13,-16.77 -6.81,-3.96 -14.47,-6.01 -23.09,-6.01 -8.7,0 -16.46,2.05 -23.41,6.01 -6.8,4.03 -12.18,9.65 -16.14,16.77 -4.03,6.95 -6.01,14.87 -6.01,23.72 0,9.1 1.98,17.24 6.01,24.36 3.96,6.96 9.34,12.5 16.14,16.45 6.95,3.8 14.71,5.7 23.41,5.7zm0 0z"/>
     </g>
    </g>
   </g>
   <g>
    <g>
     <g>
      <path class="fil2" d="M2417.67 1247.83l0 -87.31 -42.71 71.81 -15.18 0 -42.71 -69.91 0 85.41 -31.63 0 0 -145.2 27.83 0 54.41 90.16 53.47 -90.16 27.84 0 0.32 145.2 -31.64 0zm0 0z"/>
     </g>
    </g>
   </g>
   <g>
    <g>
     <g>
      <path class="fil2" d="M2582.56 1250.36c-20.72,0 -36.85,-5.69 -48.4,-17.08 -11.39,-11.55 -17.09,-28 -17.09,-49.35l0 -81.3 33.54 0 0 80.03c0,25.95 10.75,38.92 32.26,38.92 10.52,0 18.51,-3.01 24.05,-9.18 5.45,-6.33 8.22,-16.21 8.22,-29.74l0 -80.03 33.21 0 0 81.3c0,21.35 -5.84,37.8 -17.39,49.35 -11.39,11.39 -27.53,17.08 -48.4,17.08zm0 0z"/>
     </g>
    </g>
   </g>
   <g>
    <g>
     <g>
      <path class="fil2" d="M2849.42 1102.63l0 145.2 -27.83 0 -72.44 -88.26 0 88.26 -33.22 0 0 -145.2 27.84 0 72.44 88.26 0 -88.26 33.21 0zm0 0z"/>
     </g>
    </g>
   </g>
   <g>
    <g>
     <g>
      <path class="fil2" d="M2917.99 1102.63l33.85 0 0 145.2 -33.85 0 0 -145.2zm0 0z"/>
     </g>
    </g>
   </g>
   <g>
    <g>
     <g>
      <path class="fil2" d="M3089.96 1250.36c-14.79,0 -28.15,-3.16 -40.17,-9.49 -11.86,-6.48 -21.2,-15.5 -28.16,-26.89 -6.8,-11.38 -10.12,-24.35 -10.12,-38.91 0,-14.31 3.32,-27.21 10.12,-38.59 6.96,-11.39 16.3,-20.25 28.16,-26.58 12.02,-6.48 25.46,-9.8 40.49,-9.8 12.65,0 24.04,2.21 34.17,6.64 10.12,4.43 18.66,10.76 25.62,18.98l-21.51 19.93c-9.97,-11.39 -22.14,-17.08 -36.7,-17.08 -9.09,0 -17.08,2.05 -24.04,6.01 -6.96,4.03 -12.49,9.65 -16.45,16.77 -4.03,6.95 -6.01,14.87 -6.01,23.72 0,9.1 1.98,17.24 6.01,24.36 3.96,6.96 9.49,12.5 16.45,16.45 6.96,3.8 14.95,5.7 24.04,5.7 14.56,0 26.73,-5.7 36.7,-17.09l21.51 19.93c-6.96,8.46 -15.66,14.87 -25.94,19.3 -10.12,4.43 -21.51,6.64 -34.17,6.64zm0 0z"/>
     </g>
    </g>
   </g>
   <g>
    <g>
     <g>
      <path class="fil2" d="M3302.71 1216.83l-67.39 0 -12.97 31 -34.48 0 64.85 -145.2 33.22 0 64.85 145.2 -35.11 0 -12.97 -31zm-10.76 -25.63l-22.78 -55.67 -23.09 55.67 45.87 0zm0 0z"/>
     </g>
    </g>
   </g>
   <g>
    <g>
     <g>
      <path class="fil2" d="M3469.79 1250.36c-14.79,0 -28.16,-3.16 -40.18,-9.49 -11.86,-6.48 -21.2,-15.5 -28.15,-26.89 -6.81,-11.38 -10.13,-24.35 -10.13,-38.91 0,-14.31 3.32,-27.21 10.13,-38.59 6.95,-11.39 16.29,-20.25 28.15,-26.58 12.02,-6.48 25.47,-9.8 40.49,-9.8 12.66,0 24.04,2.21 34.17,6.64 10.12,4.43 18.66,10.76 25.62,18.98l-21.51 19.93c-9.97,-11.39 -22.14,-17.08 -36.69,-17.08 -9.1,0 -17.09,2.05 -24.05,6.01 -6.96,4.03 -12.49,9.65 -16.45,16.77 -4.03,6.95 -6.01,14.87 -6.01,23.72 0,9.1 1.98,17.24 6.01,24.36 3.96,6.96 9.49,12.5 16.45,16.45 6.96,3.8 14.95,5.7 24.05,5.7 14.55,0 26.72,-5.7 36.69,-17.09l21.51 19.93c-6.96,8.46 -15.66,14.87 -25.94,19.3 -10.12,4.43 -21.51,6.64 -34.16,6.64zm-11.07 45.55c-3.8,0 -7.44,-0.47 -10.76,-1.26 -3.4,-0.63 -6.25,-1.74 -8.54,-3.16l4.74 -13.92c4.43,2.06 8.94,3.16 13.6,3.16 7.12,0 10.76,-2.21 10.76,-6.64 0,-4.04 -3.4,-6.01 -10.12,-6.01l-6.96 0 5.38 -21.83 17.08 0 -2.85 12.02c6.09,0.63 10.6,2.53 13.61,5.69 2.92,3.17 4.42,6.97 4.42,11.39 0,6.33 -2.76,11.23 -8.22,14.87 -5.54,3.8 -12.89,5.69 -22.14,5.69zm0 0z"/>
     </g>
    </g>
   </g>
   <g>
    <g>
     <g>
      <path class="fil2" d="M3682.53 1216.83l-67.38 0 -12.97 31 -34.49 0 64.85 -145.2 33.22 0 64.85 145.2 -35.11 0 -12.97 -31zm-10.76 -25.63l-22.77 -55.67 -23.1 55.67 45.87 0zm-7.27 -99.96c-3.64,0 -6.88,-0.64 -9.81,-1.9 -2.77,-1.42 -5.93,-3.48 -9.49,-6.01 -2.14,-1.66 -3.96,-2.93 -5.38,-3.8 -1.5,-0.79 -2.85,-1.26 -4.11,-1.26 -3.01,0 -5.38,1.11 -7.28,3.16 -1.73,1.9 -2.69,4.75 -2.84,8.54l-16.46 0c0.4,-9.25 2.7,-16.61 6.96,-22.14 4.44,-5.46 10.21,-8.22 17.41,-8.22 3.55,0 6.72,0.78 9.48,2.21 2.93,1.5 6.17,3.48 9.81,6.01 2.3,1.74 4.12,3 5.38,3.79 1.42,0.88 2.93,1.27 4.43,1.27 2.68,0 5.06,-0.95 6.96,-2.84 1.89,-2.06 2.85,-4.83 2.85,-8.23l16.45 0c-0.24,8.86 -2.54,16.05 -6.97,21.51 -4.27,5.3 -10.04,7.91 -17.39,7.91zm0 0z"/>
     </g>
    </g>
   </g>
   <g>
    <g>
     <g>
      <path class="fil2" d="M3850.56 1250.36c-15.19,0 -28.79,-3.24 -40.81,-9.81 -12.02,-6.48 -21.51,-15.5 -28.47,-26.88 -6.8,-11.4 -10.13,-24.2 -10.13,-38.6 0,-14.08 3.33,-26.89 10.13,-38.28 6.96,-11.38 16.45,-20.32 28.47,-26.89 12.02,-6.48 25.62,-9.8 40.81,-9.8 14.95,0 28.47,3.32 40.49,9.8 12.02,6.57 21.51,15.51 28.47,26.89 6.96,11.39 10.44,24.2 10.44,38.28 0,14.4 -3.48,27.2 -10.44,38.6 -6.96,11.38 -16.45,20.4 -28.47,26.88 -12.02,6.57 -25.54,9.81 -40.49,9.81zm0 -28.78c8.62,0 16.29,-1.9 23.09,-5.7 6.96,-3.95 12.34,-9.49 16.14,-16.45 3.95,-7.12 6.01,-15.26 6.01,-24.36 0,-8.85 -2.06,-16.77 -6.01,-23.72 -3.8,-7.12 -9.18,-12.74 -16.14,-16.77 -6.8,-3.96 -14.47,-6.01 -23.09,-6.01 -8.7,0 -16.45,2.05 -23.41,6.01 -6.81,4.03 -12.18,9.65 -16.14,16.77 -4.03,6.95 -6.01,14.87 -6.01,23.72 0,9.1 1.98,17.24 6.01,24.36 3.96,6.96 9.33,12.5 16.14,16.45 6.96,3.8 14.71,5.7 23.41,5.7zm0 0z"/>
     </g>
    </g>
   </g>
   <g>
    <g>
     <g>
     </g>
    </g>
   </g>
   <g>
    <g>
     <g>
      <path class="fil2" d="M4216.08 1102.63l0 145.2 -27.84 0 -72.44 -88.26 0 88.26 -33.22 0 0 -145.2 27.84 0 72.45 88.26 0 -88.26 33.21 0zm0 0z"/>
     </g>
    </g>
   </g>
   <g>
    <g>
     <g>
      <path class="fil2" d="M4380.5 1216.83l-67.38 0 -12.97 31 -34.49 0 64.85 -145.2 33.22 0 64.85 145.2 -35.11 0 -12.97 -31zm-10.76 -25.63l-22.78 -55.67 -23.09 55.67 45.87 0zm-7.27 -99.96c-3.64,0 -6.89,-0.64 -9.81,-1.9 -2.77,-1.42 -5.94,-3.48 -9.49,-6.01 -2.14,-1.66 -3.96,-2.93 -5.38,-3.8 -1.51,-0.79 -2.85,-1.26 -4.11,-1.26 -3.01,0 -5.38,1.11 -7.28,3.16 -1.74,1.9 -2.69,4.75 -2.85,8.54l-16.45 0c0.4,-9.25 2.69,-16.61 6.96,-22.14 4.43,-5.46 10.21,-8.22 17.4,-8.22 3.56,0 6.72,0.78 9.49,2.21 2.93,1.5 6.17,3.48 9.81,6.01 2.29,1.74 4.11,3 5.38,3.79 1.42,0.88 2.92,1.27 4.43,1.27 2.68,0 5.06,-0.95 6.96,-2.84 1.89,-2.06 2.84,-4.83 2.84,-8.23l16.45 0c-0.23,8.86 -2.53,16.05 -6.96,21.51 -4.27,5.3 -10.04,7.91 -17.39,7.91zm0 0z"/>
     </g>
    </g>
   </g>
   <g>
    <g>
     <g>
      <path class="fil2" d="M4548.53 1250.36c-15.19,0 -28.79,-3.24 -40.81,-9.81 -12.03,-6.48 -21.51,-15.5 -28.47,-26.88 -6.81,-11.4 -10.13,-24.2 -10.13,-38.6 0,-14.08 3.32,-26.89 10.13,-38.28 6.96,-11.38 16.44,-20.32 28.47,-26.89 12.02,-6.48 25.62,-9.8 40.81,-9.8 14.94,0 28.47,3.32 40.49,9.8 12.02,6.57 21.51,15.51 28.47,26.89 6.96,11.39 10.44,24.2 10.44,38.28 0,14.4 -3.48,27.2 -10.44,38.6 -6.96,11.38 -16.45,20.4 -28.47,26.88 -12.02,6.57 -25.55,9.81 -40.49,9.81zm0 -28.78c8.62,0 16.29,-1.9 23.09,-5.7 6.96,-3.95 12.34,-9.49 16.13,-16.45 3.96,-7.12 6.01,-15.26 6.01,-24.36 0,-8.85 -2.05,-16.77 -6.01,-23.72 -3.79,-7.12 -9.17,-12.74 -16.13,-16.77 -6.8,-3.96 -14.47,-6.01 -23.09,-6.01 -8.7,0 -16.46,2.05 -23.41,6.01 -6.8,4.03 -12.19,9.65 -16.14,16.77 -4.03,6.95 -6.01,14.87 -6.01,23.72 0,9.1 1.98,17.24 6.01,24.36 3.95,6.96 9.34,12.5 16.14,16.45 6.95,3.8 14.71,5.7 23.41,5.7zm0 0z"/>
     </g>
    </g>
   </g>
   <g>
    <g>
     <g>
     </g>
    </g>
   </g>
   <g>
    <g>
     <g>
      <path class="fil2" d="M4920.38 1102.63l-62.96 145.2 -33.21 0 -62.64 -145.2 36.38 0 44.29 103.76 44.6 -103.76 33.54 0zm0 0z"/>
     </g>
    </g>
   </g>
   <g>
    <g>
     <g>
      <path class="fil2" d="M5082.36 1220.94l0 26.89 -112.63 0 0 -145.2 109.77 0 0 26.88 -76.23 0 0 31.64 67.38 0 0 25.94 -67.38 0 0 33.85 79.09 0zm0 0z"/>
     </g>
    </g>
   </g>
   <g>
    <g>
     <g>
      <path class="fil2" d="M5236.03 1247.83l-28.15 -40.49 -30.68 0 0 40.49 -33.85 0 0 -145.2 62.95 0c12.81,0 24.04,2.13 33.53,6.33 9.49,4.27 16.77,10.36 21.83,18.34 5.21,7.83 7.91,17.08 7.91,27.84 0,11 -2.7,20.41 -7.91,28.16 -5.3,7.82 -12.66,13.76 -22.15,17.71l32.59 46.82 -36.07 0zm-0.63 -92.69c0,-7.99 -2.69,-14.23 -7.91,-18.66 -5.29,-4.43 -12.97,-6.64 -23.09,-6.64l-27.2 0 0 50.61 27.2 0c10.12,0 17.8,-2.22 23.09,-6.65 5.22,-4.42 7.91,-10.59 7.91,-18.66zm0 0z"/>
     </g>
    </g>
   </g>
   <g>
    <g>
     <g>
      <path class="fil2" d="M5437.17 1172.22c8.23,2.77 14.63,7.2 19.3,13.29 4.82,6.17 7.27,13.76 7.27,22.78 0,12.65 -4.98,22.46 -14.87,29.42 -9.96,6.8 -24.35,10.12 -43.34,10.12l-75.28 0 0 -145.2 71.17 0c17.72,0 31.32,3.4 40.81,10.12 9.49,6.8 14.24,15.98 14.24,27.53 0,7.19 -1.82,13.52 -5.38,18.97 -3.4,5.54 -8.07,9.81 -13.92,12.97zm-73.4 -44.28l0 34.16 33.54 0c8.22,0 14.39,-1.34 18.67,-4.11 4.42,-2.93 6.64,-7.28 6.64,-12.97 0,-5.7 -2.22,-9.89 -6.64,-12.65 -4.28,-2.93 -10.45,-4.43 -18.67,-4.43l-33.54 0zm39.24 94.58c8.85,0 15.49,-1.42 19.92,-4.43 4.59,-2.92 6.96,-7.35 6.96,-13.28 0,-12.18 -9.01,-18.35 -26.88,-18.35l-39.24 0 0 36.06 39.24 0zm0 0z"/>
     </g>
    </g>
   </g>
   <g>
    <g>
     <g>
      <path class="fil2" d="M5619.23 1216.83l-67.39 0 -12.97 31 -34.48 0 64.86 -145.2 33.21 0 64.85 145.2 -35.11 0 -12.97 -31zm-10.76 -25.63l-22.78 -55.67 -23.09 55.67 45.87 0zm0 0z"/>
     </g>
    </g>
   </g>
   <g>
    <g>
     <g>
      <path class="fil2" d="M5716.71 1102.63l33.85 0 0 117.68 72.76 0 0 27.52 -106.61 0 0 -145.2zm0 0z"/>
     </g>
    </g>
   </g>
  </g>
 </g>
</svg>
